
        <svg xmlns="http://www.w3.org/2000/svg" xmlns:xlink="http://www.w3.org/1999/xlink" version="1.1" width="3162.0294501592703" height="876.2958725539874" viewBox="0 -32.405890031854035 3162.0294501592703 876.2958725539874">
			
			<g transform="scale(8.101472507963509) translate(10, 10)">
				<defs id="SvgjsDefs2237"/><g id="SvgjsG2238" featureKey="symbolFeature-0" transform="matrix(0.15754202300527967,0,0,0.15754202300527967,-2.5086659368058446,-8.74201345011862)" fill="#fff"><metadata xmlns="http://www.w3.org/2000/svg">Created by potrace 1.14, written by Peter Selinger 2001-2017</metadata><g xmlns="http://www.w3.org/2000/svg" transform="translate(0.000000,600.000000) scale(0.100000,-0.100000)" stroke="none"><path d="M3823 5689 c-157 -20 -367 -116 -546 -249 -133 -99 -333 -292 -440 -425 -141 -175 -270 -385 -348 -564 l-36 -84 34 -96 c72 -201 117 -414 132 -623 4 -69 11 -131 15 -137 5 -7 41 -11 95 -11 101 0 206 24 319 72 l76 33 2 70 c6 192 135 340 391 450 74 32 185 65 265 79 42 8 81 52 183 211 400 620 402 1210 4 1275 -35 5 -68 9 -74 9 -5 -1 -38 -5 -72 -10z"/><path d="M1325 5338 c-118 -44 -207 -165 -257 -349 -21 -76 -23 -106 -23 -299 0 -182 4 -232 23 -326 65 -325 166 -591 321 -852 105 -176 168 -255 211 -263 279 -56 495 -124 675 -214 l127 -62 39 59 c61 96 96 208 114 364 l7 62 -47 23 c-57 29 -125 100 -159 168 -46 89 -59 169 -52 321 5 134 13 177 56 322 l22 76 -45 101 c-100 222 -235 431 -382 588 -105 113 -192 180 -313 241 -90 45 -98 46 -190 49 -54 1 -110 -2 -127 -9z"/><path d="M3953 4166 l-92 -11 -64 -75 c-144 -168 -335 -338 -499 -444 -56 -36 -88 -64 -88 -75 0 -25 66 -130 122 -195 26 -30 84 -82 128 -115 l81 -61 37 25 c58 38 121 57 197 57 179 2 351 -86 543 -278 l102 -103 111 -12 c144 -15 485 -6 602 15 143 27 256 63 367 118 132 64 234 160 269 252 105 282 -205 604 -758 786 -334 110 -741 155 -1058 116z"/><path d="M995 3210 c-409 -35 -713 -176 -806 -374 -145 -307 253 -682 907 -852 254 -66 564 -95 809 -76 85 7 161 15 169 18 8 3 58 54 110 114 145 165 330 323 496 426 33 20 60 42 60 49 0 6 -14 40 -31 74 -36 72 -164 208 -247 263 l-53 36 -71 -37 c-69 -35 -74 -36 -182 -36 -105 0 -115 2 -192 36 -119 52 -217 122 -332 237 l-104 103 -71 8 c-116 15 -354 20 -462 11z"/><path d="M3519 3068 c-63 -85 -110 -229 -124 -376 l-7 -67 46 -24 c57 -30 126 -103 160 -169 75 -149 75 -369 -1 -625 l-26 -87 29 -72 c16 -39 59 -128 96 -196 192 -351 431 -600 670 -694 78 -32 225 -32 289 0 103 51 187 173 230 337 30 113 37 357 15 520 -39 298 -147 617 -302 897 -55 98 -105 175 -198 301 -9 11 -41 22 -92 32 -238 42 -449 111 -644 210 l-110 55 -31 -42z"/><path d="M3135 2580 c-68 -10 -156 -36 -241 -72 l-72 -30 -4 -86 c-3 -68 -10 -98 -30 -138 -94 -181 -310 -314 -609 -374 -55 -11 -57 -13 -111 -88 -428 -600 -513 -1211 -191 -1369 46 -22 74 -28 147 -31 265 -12 586 157 901 472 176 176 305 343 425 551 58 100 140 276 140 301 0 9 -14 55 -31 102 -71 200 -118 433 -134 663 l-7 97 -45 6 c-52 7 -68 6 -138 -4z"/></g></g><g id="SvgjsG2239" featureKey="nameFeature-0" transform="matrix(1.7587799648382785,0,0,1.7587799648382785,108.71071718048506,-17.984929714238636)" fill="#fff"><path d="M1.08 39.72 c-0.4 0 -0.72 -0.2 -0.84 -0.56 c-0.6 -1.52 2.56 -6.4 2.96 -7.44 c0 0 0.44 -1.08 1.16 -1 c0.76 0.08 0.96 0.96 0.8 1.32 c-0.12 0.32 -0.88 0.56 -0.96 0.68 c-1.08 2.44 -3.04 4.84 -2.96 5.84 c1.2 0.8 5.12 -2.92 6.52 -4.24 c0.12 -0.08 0.28 -0.56 0.6 -0.44 c0.4 0.16 0.12 0.52 -0.04 0.68 c-1.32 1.4 -5.08 5.2 -7.16 5.16 l-0.08 0 z M6.08 28.32 c0 0.4 0 0.76 -0.36 0.76 c-0.32 0 -0.6 -0.36 -0.6 -0.76 c0 -0.44 0.28 -0.76 0.6 -0.76 c0.36 0 0.52 0.36 0.36 0.76 z M19.372 36 c0.08 0.56 -0.68 0.48 -0.68 0.48 c-0.68 0.16 -1.36 0.48 -2 0.8 c-1.12 0.48 -2.16 1.28 -3.16 2.04 c-2.68 7.08 -6.68 16.64 -9.16 18.44 c-0.36 0.24 -0.64 0.32 -0.92 0.32 c-0.2 0 -0.36 -0.04 -0.48 -0.12 c-0.56 -0.36 -0.72 -1.16 -0.48 -2.52 c0.56 -3.64 4.08 -11.8 10.04 -16.52 c0.56 -1.48 1.08 -2.96 1.56 -4.32 c-2.92 3.36 -4.6 3.8 -4.96 3.68 c-0.24 -0.08 -0.68 -0.32 -0.76 -1.16 l0 0 c-0.08 -1.68 4.32 -6.32 5.16 -6.28 c0 0 0.6 0.16 0.56 0.44 c0 0.52 -0.52 0.76 -0.72 0.72 c-0.76 -0.4 -3.92 3.72 -3.84 5.04 l0 0.12 c0.48 -0.12 1.88 -1.2 4.08 -3.92 c0.64 -0.84 1.16 -1.44 1.44 -1.8 c0.28 -0.32 0.52 -0.64 0.8 -0.6 l0.16 0 c0.12 0.04 0.2 0.12 0.24 0.24 c0.12 0.08 0.16 0.28 0.12 0.48 l0 0.04 c-0.12 0.28 -1.2 3.24 -2.4 6.44 c0.72 -0.44 3.76 -2.24 4.44 -2.4 c0 0 0.84 -0.2 0.96 0.36 z M3.692 56.8 c1.92 -1.36 5.28 -8.92 7.96 -15.84 c-3.12 3.12 -5.52 7.28 -6.92 10.88 c-1.16 2.92 -1.28 4.56 -1.16 5.04 c0.04 0 0.08 -0.04 0.12 -0.08 z M33.664 34.6 c0.12 0.48 -0.44 0.44 -0.44 0.44 c-0.28 0.12 -1.12 0.36 -2.28 0.56 c0 0 -1.48 0.28 -2.84 0.28 c-0.6 -0.04 -1.24 1.32 -1.64 2.12 c-0.48 1 -1.04 1.68 -1.72 1.56 c-0.2 -0.04 -0.36 -0.16 -0.48 -0.32 c-0.28 -0.44 -0.16 -1.24 0.24 -3.16 c0.04 -0.28 0.6 -1.92 0.64 -2.24 c-0.12 0.24 -0.72 1.8 -0.84 2.04 c-1.28 2.6 -2.12 4.2 -3.08 4.36 l-0.16 0 c-0.24 0 -0.48 -0.08 -0.68 -0.28 c-1.4 -1.32 0.56 -5.44 1.16 -6.68 c0 0 0.36 -0.44 0.92 -0.24 c0.52 0.2 0.2 0.68 0.2 0.68 c-1.04 2 -1.88 4.6 -1.56 5.32 c0.56 -0.44 1.64 -2.6 2.16 -3.68 c0.96 -1.92 1.32 -2.44 1.84 -2.6 c0.16 -0.04 0.36 -0.04 0.52 0.08 c0.72 0.4 0.16 2.72 -0.2 4.64 c0.92 -0.92 1.64 -2.72 2.8 -2.64 c2.44 0.36 3.84 -0.04 4.36 -0.24 c0 0 0.84 -0.64 1.08 0 z M43.876 34.2 c0.36 0.28 -0.16 0.6 -0.16 0.6 c-0.32 0.36 -4.8 5.48 -8.16 5.16 c-0.12 0 -0.24 -0.04 -0.36 -0.04 c-0.4 -0.08 -0.92 -0.36 -1.24 -1.12 c-0.88 -2.24 0.56 -4.6 2.28 -5.88 c1.08 -0.8 2.04 -1 2.6 -0.52 c0.28 0.2 0.44 0.52 0.4 0.88 c-0.04 1.2 -2.24 2.8 -2.92 3.24 c0 0 -0.28 0.08 -0.6 -0.24 c-0.32 -0.36 -0.04 -0.72 -0.04 -0.72 c1.2 -0.8 2.28 -1.84 2.4 -2.28 c-0.24 0 -0.96 0.28 -1.8 1.12 c-0.96 1 -1.8 2.56 -1.24 3.96 c0.56 1.08 2.04 0.52 3.24 0.04 c1.28 -0.48 4.04 -2.92 4.68 -3.68 c0 0 0.4 -1 0.92 -0.52 z M55.048 33.24 c0.04 0.48 -0.56 0.36 -0.56 0.36 c-0.28 0.04 -1.24 0.08 -2.52 0.04 c-0.52 0 -1 0 -1.16 0.04 c0.04 0.96 -0.32 2.08 -0.88 3.12 c-0.92 1.6 -2.4 3.04 -3.84 3.04 c-0.36 0 -0.72 -0.08 -1.08 -0.28 c-0.56 -0.32 -0.88 -0.8 -1 -1.4 c-0.4 -2.4 3.92 -7.12 4.32 -7.56 c0 0 0.48 -0.48 0.8 -0.28 c0.52 0.36 0.08 0.88 0.08 0.88 c-1.44 1.56 -4.28 5.4 -4.08 6.76 c0.04 0.28 0.16 0.72 0.4 0.84 c1.04 0.56 2.52 -1.04 3.36 -2.56 c0.52 -0.88 0.8 -1.88 0.76 -2.6 c-0.52 -0.12 -0.84 -0.32 -0.96 -0.64 c-0.2 -0.44 0.08 -0.92 0.4 -1.2 l0.32 -0.24 l0.36 0.2 c0.32 0.2 0.56 0.44 0.76 0.76 c0.2 0.24 0.48 0.36 0.76 0.44 c1.08 0.12 2.08 0.12 2.72 0.04 c0 0 0.96 -0.44 1.04 0.24 z M64.94 35.519999999999996 c0.24 -0.52 0.8 -0.36 0.72 -0.16 c-1.88 4.48 -6.16 8.2 -7.36 8.2 c-0.12 0 -0.2 -0.04 -0.24 -0.04 c-0.2 -0.04 -0.64 -0.24 -0.64 -0.96 c-0.04 -1.04 0.76 -2.56 1.64 -4.28 c0.52 -1.08 1.04 -2.2 1.32 -3.08 c0.32 -0.88 0.24 -1.36 0.2 -1.48 c-1.12 -0.32 -2.88 2.52 -3.8 4.08 c-0.96 1.56 -1.36 2.2 -2 2.08 c-0.16 0 -0.48 -0.12 -0.6 -0.68 c-0.4 -1.88 1.8 -5.56 2 -5.96 c0 0 0.28 -0.96 1.2 -0.32 c0.44 0.28 -0.36 0.84 -0.36 0.84 c-0.6 1.04 -1.4 2.84 -1.64 4.12 c0.12 -0.24 0.28 -0.48 0.4 -0.68 c1.4 -2.32 3.32 -5.44 5.36 -4.48 l0.08 0.04 l0.08 0.04 c1.12 0.96 0.04 3.2 -1.2 5.8 c-0.64 1.28 -1.32 2.72 -1.48 3.6 c1.2 0.16 4.48 -2.88 6.32 -6.68 z M77.232 36.36 c0 0 0.2 -0.2 0.48 -0.08 c0.32 0.16 0 0.52 0 0.52 c-1 1.24 -4 3.6 -5.6 3.6 l0 0 c-0.52 0 -0.8 -0.2 -0.96 -0.4 c-0.32 -0.4 -0.52 -1.16 0.44 -3.68 c-3 3.48 -3.96 3.16 -4.28 3.08 c-0.24 -0.08 -0.72 -0.32 -0.76 -1.16 l0 -0.04 c-0.12 -1.68 2.28 -6.52 3.08 -6.48 c0 0 0.6 0.2 0.6 0.48 c-0.04 0.52 -0.36 0.92 -0.6 0.88 c-0.72 -0.4 -2 3.76 -1.96 5.08 c0 0.04 0.04 0.08 0.04 0.12 c0.48 -0.12 1.88 -1.2 4.04 -3.96 c0.68 -0.84 1.16 -1.44 1.48 -1.8 c0.32 -0.4 0.64 -0.8 1.08 -0.44 c0.16 0.12 0.36 0.44 0.12 0.8 c-1.48 2.88 -2.56 5.76 -2.4 6.36 c0.2 0.6 1.24 0.28 2.6 -0.64 c1 -0.68 2.08 -1.6 2.6 -2.24 z M100.896 34.2 c0.36 0.28 -0.16 0.6 -0.16 0.6 c-0.32 0.36 -4.8 5.48 -8.16 5.16 c-0.12 0 -0.24 -0.04 -0.36 -0.04 c-0.4 -0.08 -0.92 -0.36 -1.24 -1.12 c-0.88 -2.24 0.56 -4.6 2.28 -5.88 c1.08 -0.8 2.04 -1 2.6 -0.52 c0.28 0.2 0.44 0.52 0.4 0.88 c-0.04 1.2 -2.24 2.8 -2.92 3.24 c0 0 -0.28 0.08 -0.6 -0.24 c-0.32 -0.36 -0.04 -0.72 -0.04 -0.72 c1.2 -0.8 2.28 -1.84 2.4 -2.28 c-0.24 0 -0.96 0.28 -1.8 1.12 c-0.96 1 -1.8 2.56 -1.24 3.96 c0.56 1.08 2.04 0.52 3.24 0.04 c1.28 -0.48 4.04 -2.92 4.68 -3.68 c0 0 0.4 -1 0.92 -0.52 z M113.268 13.16 c0.48 0.32 0 1.12 0 1.12 c-2.68 5.36 -8.2 16.68 -11.56 24.44 c0.6 -0.6 1.2 -1.04 1.88 -1.12 c0.56 -0.08 1.08 0.08 1.56 0.52 c0.12 0.12 0.36 0.44 0.48 0.6 c0.88 -1.2 1.72 -2.36 2.4 -3.16 c0.36 -0.44 0.56 -0.92 0.76 -1.12 c0.52 -0.56 1.24 0.04 0.8 0.52 c-0.16 0.16 -0.56 0.56 -1 1.08 c-0.64 0.88 -1.48 2.16 -2.52 3.56 c0.32 1 0.28 2.2 -0.12 3.52 c-0.72 2.32 -2.6 4.88 -4.52 5.16 l-0.2 0 c-0.56 0 -0.8 -0.36 -0.84 -0.52 c-0.2 -0.36 -0.6 -1.28 3.52 -7.12 c0.28 -0.36 0.56 -0.76 0.84 -1.16 c-0.08 -0.2 -0.24 -0.36 -0.4 -0.52 c-0.28 -0.24 -0.48 -0.24 -0.6 -0.24 c-0.84 0.12 -2.8 3.04 -4.04 4.92 c-0.48 1.32 -0.76 2.32 -0.76 2.8 c0 0 -0.16 0.36 -0.64 0.36 c-0.52 0 -0.52 -0.36 -0.52 -0.36 c0 -3.64 12.96 -29.72 14.44 -32.64 c0 0 0.56 -0.96 1.04 -0.64 z M105.148 40.92 c-0.08 0.08 -0.12 0.12 -0.16 0.2 c-2.52 3.56 -3.36 5.32 -3.52 5.96 c1.2 -0.32 2.76 -2.28 3.4 -4.32 c0.12 -0.4 0.28 -1.12 0.28 -1.84 z M120.64000000000001 36.36 c0 0 0.2 -0.2 0.48 -0.08 c0.32 0.16 0 0.52 0 0.52 c-1 1.24 -4 3.6 -5.6 3.6 l0 0 c-0.52 0 -0.8 -0.2 -0.96 -0.4 c-0.32 -0.4 -0.52 -1.16 0.44 -3.68 c-3 3.48 -3.96 3.16 -4.28 3.08 c-0.24 -0.08 -0.72 -0.32 -0.76 -1.16 l0 -0.04 c-0.12 -1.68 2.28 -6.52 3.08 -6.48 c0 0 0.6 0.2 0.6 0.48 c-0.04 0.52 -0.36 0.92 -0.6 0.88 c-0.72 -0.4 -2 3.76 -1.96 5.08 c0 0.04 0.04 0.08 0.04 0.12 c0.48 -0.12 1.88 -1.2 4.04 -3.96 c0.68 -0.84 1.16 -1.44 1.48 -1.8 c0.32 -0.4 0.64 -0.8 1.08 -0.44 c0.16 0.12 0.36 0.44 0.12 0.8 c-1.48 2.88 -2.56 5.76 -2.4 6.36 c0.2 0.6 1.24 0.28 2.6 -0.64 c1 -0.68 2.08 -1.6 2.6 -2.24 z M138.172 33.64 c0.44 0.36 -0.24 0.76 -0.24 0.76 c0 0.08 -0.28 0.4 -0.72 0.92 c-1.88 2.36 -7.04 8.44 -10 8.44 l-0.28 0 c-0.96 -0.08 -1.72 -0.48 -2.28 -1.2 c-0.84 -1.08 -0.4 -3.52 0.04 -5.12 c-2.6 4.2 -4.8 9.44 -5.92 12.4 c0 0.2 -0.08 0.44 -0.08 0.56 c0 0 -0.04 0.52 -0.52 0.52 c-0.52 0 -0.6 -0.64 -0.6 -0.64 c0 -0.16 0.08 -0.64 0.12 -0.8 c1.72 -8 16.08 -36.92 16.92 -38.68 c0 0 0.12 -0.68 0.6 -0.56 c0.8 0.24 0.44 1.04 0.44 1.04 c-4.68 9.76 -7.24 14.4 -12.04 25.72 c0.2 -0.36 0.4 -0.72 0.64 -1.04 c0 0 -0.16 -0.2 0 -0.4 c0.12 -0.16 0.16 0 0.24 0 c2.6 -3.88 5.08 -5.84 7.32 -5.88 c1.24 0 2 0.28 2.28 0.8 c0.16 0.28 0.28 0.72 -0.08 1.32 c-0.92 1.6 -4.88 3.8 -7.84 4.6 c-0.56 1.48 -2.08 6.44 0.84 6.64 c2.16 0.16 6.8 -4.64 8.96 -7.24 c0.32 -0.36 1.88 -2.44 2.2 -2.16 z M131.812 30.84 c-1.84 0 -3.8 1.84 -5.64 4.4 c2.28 -0.68 5.2 -2.28 6.44 -3.52 c0.36 -0.4 0.48 -0.6 0.48 -0.68 c-0.08 -0.04 -0.36 -0.2 -1.24 -0.2 l-0.04 0 z M148.184 36.04 c0 0 0.32 -0.16 0.48 0 c0.16 0.2 0 0.44 0 0.44 c-1.04 1.24 -4 3.6 -5.6 3.6 c-0.52 0 -0.84 -0.2 -0.96 -0.4 c-0.36 -0.4 -0.56 -1.16 0.44 -3.68 c-3 3.48 -3.96 3.16 -4.32 3.08 c-0.24 -0.08 -0.68 -0.36 -0.76 -1.16 l0 -0.04 c-0.08 -1.68 4.32 -6.32 5.16 -6.24 c0 0 0.6 0.16 0.56 0.44 c0 0.52 -0.52 0.72 -0.72 0.68 c-0.76 -0.36 -3.92 3.76 -3.84 5.08 l0 0.12 c0.48 -0.12 1.88 -1.2 4.08 -3.96 c0.64 -0.84 1.16 -1.44 1.44 -1.8 c0.36 -0.4 0.68 -0.8 1.12 -0.44 c0.16 0.12 0.36 0.4 0.12 0.8 c-1.52 2.88 -2.6 5.76 -2.4 6.36 c0.16 0.6 1.2 0.28 2.56 -0.64 c1 -0.68 2.08 -1.6 2.64 -2.24 z"/></g>
			</g>
		</svg>
	